<?xml version="1.0" encoding="utf-8"?>
<!-- Generator: Adobe Illustrator 16.0.0, SVG Export Plug-In . SVG Version: 6.00 Build 0)  -->
<!DOCTYPE svg PUBLIC "-//W3C//DTD SVG 1.1//EN" "http://www.w3.org/Graphics/SVG/1.1/DTD/svg11.dtd">
<svg version="1.1" id="Capa_1" xmlns="http://www.w3.org/2000/svg" xmlns:xlink="http://www.w3.org/1999/xlink" x="0px" y="0px"
	 width="100px" height="100px" viewBox="0 0 100 100" enable-background="new 0 0 100 100" xml:space="preserve">
<g>
	<path d="M76.882,15.532c-2.788-4.78-6.542-8.535-11.321-11.322C60.781,1.422,55.604,0,49.972,0c-5.633,0-10.811,1.422-15.589,4.21
		c-4.78,2.787-8.534,6.542-11.322,11.322c-2.788,4.778-4.153,9.956-4.153,15.588v1.251c0,0.399,0.057,0.626,0.114,0.797v0.113v0.626
		v0.569c0.456,4.21,1.567,9.168,3.413,14.849c1.853,5.697,4.13,11.503,6.828,17.41C31.97,72.664,34.554,78.001,37,82.779
		c2.447,4.779,4.95,9.444,7.511,14.053c1.876,4.268,8.863,4.18,10.98,0c2.382-4.703,5.063-9.273,7.51-14.053
		c2.446-4.778,4.982-10.137,7.681-16.043c2.707-5.928,4.981-11.729,6.827-17.41c1.852-5.697,3.016-10.638,3.471-14.849v-0.796
		c0-0.285,0.057-0.455,0.113-0.512v-0.797V31.12C81.092,25.488,79.67,20.311,76.882,15.532z M74.834,32.145v0.682
		c-0.057,0.057-0.113,0.171-0.113,0.342v0.739c-0.398,4.04-1.594,8.875-3.527,14.622c-1.936,5.745-4.324,11.605-7.113,17.579
		c-2.786,5.975-5.312,11.026-7.509,15.305c-2.185,4.256-4.38,8.363-6.599,12.346c-2.163-3.869-4.393-7.959-6.601-12.289
		c-2.23-4.374-4.676-9.496-7.452-15.418c-2.799-5.968-5.121-11.777-7.056-17.522c-1.935-5.747-3.129-10.583-3.584-14.622v-0.626
		v-0.568c-0.057-0.057-0.114-0.285-0.114-0.569V31.12c0-6.827,2.46-12.672,7.283-17.522c4.85-4.879,10.697-7.34,17.524-7.34
		c6.883,0,12.729,2.46,17.58,7.34c4.821,4.85,7.282,10.695,7.282,17.522V32.145z"/>
	<path d="M49.972,21.05c-3.13,0-5.861,1.139-8.08,3.357s-3.299,4.95-3.299,8.079s1.08,5.86,3.299,8.079s4.95,3.357,8.08,3.357
		c3.129,0,5.86-1.138,8.079-3.357s3.355-4.95,3.355-8.079s-1.137-5.86-3.355-8.079S53.102,21.05,49.972,21.05z M53.612,36.127
		c-2.033,2.006-5.262,2.02-7.281,0c-2.021-2.02-1.992-5.233,0-7.226c2.047-2.047,5.219-2.033,7.281,0
		C55.646,30.908,55.676,34.094,53.612,36.127z"/>
</g>
</svg>
