<?xml version="1.0" encoding="utf-8"?>
<!-- Generator: Adobe Illustrator 16.0.0, SVG Export Plug-In . SVG Version: 6.00 Build 0)  -->
<!DOCTYPE svg PUBLIC "-//W3C//DTD SVG 1.1//EN" "http://www.w3.org/Graphics/SVG/1.1/DTD/svg11.dtd">
<svg version="1.1" id="Ebene_1" xmlns="http://www.w3.org/2000/svg" xmlns:xlink="http://www.w3.org/1999/xlink" x="0px" y="0px"
	 width="100px" height="100px" viewBox="0 0 100 100" enable-background="new 0 0 100 100" xml:space="preserve">
<g id="lock-outline">
	<path fill="#010202" d="M77.657,33.247h-4.703v-9.409c0-13.171-10.35-23.521-23.522-23.521c-13.171,0-23.52,10.349-23.52,23.521
		v9.409h-4.705c-5.174,0-9.408,4.233-9.408,9.408v47.041c0,5.175,4.233,9.408,9.408,9.408h56.45c5.175,0,9.409-4.233,9.409-9.408
		V42.654C87.066,37.48,82.832,33.247,77.657,33.247z M49.432,9.255c7.999,0,14.583,6.586,14.583,14.583v9.409H34.88v-9.409h-0.03
		C34.85,15.841,41.436,9.255,49.432,9.255z M77.657,89.695h-56.45V42.654h56.45V89.695z M49.432,75.584
		c5.175,0,9.41-4.234,9.41-9.409c0-5.174-4.234-9.408-9.41-9.408c-5.174,0-9.407,4.234-9.407,9.408
		C40.025,71.35,44.258,75.584,49.432,75.584z"/>
</g>
</svg>
