<?xml version="1.0" encoding="utf-8"?>
<!-- Generator: Adobe Illustrator 16.0.0, SVG Export Plug-In . SVG Version: 6.00 Build 0)  -->
<!DOCTYPE svg PUBLIC "-//W3C//DTD SVG 1.1//EN" "http://www.w3.org/Graphics/SVG/1.1/DTD/svg11.dtd">
<svg version="1.1" id="Capa_1" xmlns="http://www.w3.org/2000/svg" xmlns:xlink="http://www.w3.org/1999/xlink" x="0px" y="0px"
	 width="600px" height="600px" viewBox="0 0 600 600" enable-background="new 0 0 600 600" xml:space="preserve">
<path d="M490.717,256.235c-1.323-4.074-5.122-6.831-9.401-6.831h-131.33l-40.582-124.9c-1.322-4.072-5.12-6.831-9.402-6.831
	s-8.08,2.759-9.403,6.831l-40.581,124.9h-131.33c-4.282,0-8.081,2.756-9.404,6.831c-1.322,4.074,0.126,8.535,3.591,11.053
	l106.244,77.194l-40.582,124.899c-1.323,4.074,0.125,8.535,3.592,11.054c3.466,2.521,8.157,2.521,11.623,0L300,403.243
	l106.249,77.192c1.731,1.262,3.773,1.888,5.811,1.888c2.038,0,4.079-0.626,5.812-1.888c3.466-2.519,4.913-6.979,3.591-11.054
	l-40.58-124.899l106.242-77.194C490.59,264.77,492.04,260.309,490.717,256.235z M363.446,332.711
	c-3.465,2.52-4.913,6.979-3.591,11.055l33.402,102.79l-87.445-63.528c-1.733-1.26-3.775-1.887-5.812-1.887s-4.079,0.627-5.811,1.887
	l-87.448,63.528l33.404-102.79c1.323-4.074-0.126-8.535-3.592-11.055l-87.441-63.536h108.087c4.281,0,8.08-2.756,9.403-6.831
	L300,159.548l33.397,102.796c1.322,4.074,5.121,6.831,9.403,6.831h108.087L363.446,332.711z"/>
</svg>
