<?xml version="1.0" encoding="utf-8"?>
<!-- Generator: Adobe Illustrator 16.0.0, SVG Export Plug-In . SVG Version: 6.00 Build 0)  -->
<!DOCTYPE svg PUBLIC "-//W3C//DTD SVG 1.1//EN" "http://www.w3.org/Graphics/SVG/1.1/DTD/svg11.dtd">
<svg version="1.1" id="Capa_1" xmlns="http://www.w3.org/2000/svg" xmlns:xlink="http://www.w3.org/1999/xlink" x="0px" y="0px"
	 width="100px" height="100px" viewBox="0 0 100 100" enable-background="new 0 0 100 100" xml:space="preserve">
<g id="_x36__6_">
	<g>
		<path d="M83.334,60V33.333C83.334,14.923,68.41,0,50,0S16.667,14.923,16.667,33.333V60L3.333,86.666H33.67
			C35.213,94.273,41.937,100,50,100s14.787-5.727,16.33-13.334h30.336L83.334,60z M50,93.334c-4.347,0-8.01-2.791-9.387-6.668
			h18.777C58.01,90.543,54.347,93.334,50,93.334z M13.333,80l10-20V33.333c0-14.727,11.94-26.667,26.667-26.667
			s26.666,11.94,26.666,26.667V60l10,20H13.333z"/>
	</g>
</g>
</svg>
